<?xml version="1.0" encoding="utf-8"?>
<!-- Generator: Adobe Illustrator 15.1.0, SVG Export Plug-In . SVG Version: 6.00 Build 0)  -->
<!DOCTYPE svg PUBLIC "-//W3C//DTD SVG 1.1//EN" "http://www.w3.org/Graphics/SVG/1.1/DTD/svg11.dtd">
<svg version="1.1" id="Layer_1" xmlns="http://www.w3.org/2000/svg" xmlns:xlink="http://www.w3.org/1999/xlink" x="0px" y="0px"
	 width="595.28px" height="841.89px" viewBox="0 0 595.28 841.89" enable-background="new 0 0 595.28 841.89" xml:space="preserve">
<path d="M296.137,388.855c11.988-2.01,24.635,0.121,35.256,6.055c10.631,5.874,19.182,15.438,23.795,26.676
	c4.687,11.25,5.354,24.102,1.938,35.797c-4.62,16.163-17.256,29.808-33.071,35.531c-1.297,0.612-2.293-0.702-2.581-1.806
	c-3.881-10.446-7.877-20.855-11.718-31.314c-0.894-1.884,1.428-2.556,2.676-3.198c6.852-3.275,10.513-11.819,8.143-19.049
	c-1.746-5.898-7.116-10.494-13.212-11.305c-6.96-1.128-14.286,2.994-17.064,9.443c-2.664,5.797-1.41,13.111,3.066,17.664
	c1.758,1.998,4.188,3.145,6.51,4.338c1.038,0.564,0.678,1.914,0.324,2.797c-3.906,10.32-7.746,20.657-11.652,30.978
	c-0.276,0.888-1.188,1.938-2.208,1.506c-19.056-6.672-33.3-25.031-35.142-45.132c-1.428-13.206,2.256-26.873,10.152-37.554
	C269.575,398.973,282.331,391.088,296.137,388.855L296.137,388.855z"/>
<path fill="#FFFFFF" d="M293.551,393.23c9.991-2.364,20.694-1.578,30.234,2.232c10.896,4.302,20.172,12.552,25.758,22.854
	c5.01,9.156,7.039,19.902,5.73,30.264c-1.272,10.615-6.09,20.749-13.463,28.489c-4.825,5.136-10.777,9.138-17.221,11.946
	c-3.589-9.595-7.314-19.141-10.74-28.795c5.802-2.952,10.134-8.718,10.907-15.234c1.357-8.844-4.181-18.054-12.563-21.102
	c-7.722-3.072-17.189-0.594-22.386,5.893c-5.016,5.934-5.952,14.897-2.292,21.744c1.914,3.815,5.214,6.737,8.922,8.76
	c-3.594,9.569-7.182,19.14-10.782,28.703c-9.888-4.14-18.402-11.478-23.91-20.676c-4.656-7.74-7.212-16.752-7.152-25.794
	c-0.138-11.202,3.738-22.368,10.656-31.163C272.264,402.332,282.416,395.805,293.551,393.23L293.551,393.23z"/>
<text transform="matrix(1.046 0 0 1 358.5664 488.8652)" font-family="'ArialMT'" font-size="6.9653">R</text>
<ellipse fill="none" stroke="#000000" stroke-miterlimit="10" cx="360.92" cy="486.544" rx="4.25" ry="4.063"/>
</svg>
