<?xml version="1.0" encoding="UTF-8" standalone="no"?>
<!-- Created with Inkscape (http://www.inkscape.org/) -->

<svg
   xmlns:dc="http://purl.org/dc/elements/1.1/"
   xmlns:cc="http://creativecommons.org/ns#"
   xmlns:rdf="http://www.w3.org/1999/02/22-rdf-syntax-ns#"
   xmlns:svg="http://www.w3.org/2000/svg"
   xmlns="http://www.w3.org/2000/svg"
   xmlns:sodipodi="http://sodipodi.sourceforge.net/DTD/sodipodi-0.dtd"
   xmlns:inkscape="http://www.inkscape.org/namespaces/inkscape"
   width="496.06299"
   height="318.89764"
   id="svg2"
   version="1.1"
   inkscape:version="0.48.2 r9819"
   sodipodi:docname="OSCAR_text.svg">
  <defs
     id="defs4" />
  <sodipodi:namedview
     id="base"
     pagecolor="#ffffff"
     bordercolor="#666666"
     borderopacity="1.0"
     inkscape:pageopacity="1"
     inkscape:pageshadow="2"
     inkscape:zoom="1.4"
     inkscape:cx="349.17579"
     inkscape:cy="188.70362"
     inkscape:document-units="px"
     inkscape:current-layer="layer1"
     showgrid="false"
     inkscape:window-width="1680"
     inkscape:window-height="988"
     inkscape:window-x="-8"
     inkscape:window-y="-8"
     inkscape:window-maximized="1"
     units="cm" />
  <metadata
     id="metadata7">
    <rdf:RDF>
      <cc:Work
         rdf:about="">
        <dc:format>image/svg+xml</dc:format>
        <dc:type
           rdf:resource="http://purl.org/dc/dcmitype/StillImage" />
        <dc:title />
      </cc:Work>
    </rdf:RDF>
  </metadata>
  <g
     inkscape:label="Layer 1"
     inkscape:groupmode="layer"
     id="layer1"
     transform="translate(0,-733.46314)">
    <g
       id="g3049"
       transform="translate(-72,192.57143)">
      <g
         transform="translate(-64.523597,16.88843)"
         id="g3030">
        <path
           id="path2986"
           d="m 386.27595,537.00589 -2.73991,14.73381 c -0.0672,0.3585 -0.40422,0.75107 -0.75017,0.87207 l -10.53657,4.51631 c -0.32535,0.1685 -0.83622,0.13623 -1.13916,-0.0717 l -12.51195,-8.58449 c -0.30115,-0.20525 -0.75914,-0.16491 -1.01816,0.0941 l -10.7221,10.72213 c -0.25902,0.25903 -0.30114,0.71612 -0.0941,1.01727 l 8.73685,12.73153 c 0.20705,0.30115 0.24379,0.8174 0.0825,1.14454 l -4.18111,10.21391 c -0.11472,0.34686 -0.5028,0.68475 -0.8622,0.75287 l -15.23931,2.83669 c -0.35851,0.0663 -0.65338,0.42036 -0.65338,0.78603 l 0,15.16492 c 0,0.36478 0.29398,0.71881 0.65338,0.78513 l 15.23931,2.8358 c 0.3594,0.0681 0.74748,0.40511 0.8622,0.75287 l 4.18111,10.21481 c 0.16133,0.32803 0.12459,0.84429 -0.0825,1.14454 l -8.73596,12.73153 c -0.20703,0.30204 -0.16491,0.76004 0.0941,1.01816 l 10.72121,10.72209 c 0.25902,0.25813 0.71701,0.30116 1.01816,0.0941 l 12.51195,-8.58538 c 0.30294,-0.20614 0.81381,-0.23841 1.13916,-0.0709 l 10.53657,4.5172 c 0.34595,0.12011 0.68295,0.51178 0.75017,0.87208 l 2.73991,14.7329 c 0.0681,0.36031 0.42124,0.65339 0.78692,0.65339 l 15.16401,-8.9e-4 c 0.36568,0 0.72151,-0.29398 0.78693,-0.65339 l 2.67448,-14.3717 c 0.0654,-0.35941 0.4069,-0.74392 0.75555,-0.85326 l 11.20788,-4.48673 c 0.32893,-0.16044 0.84339,-0.12279 1.14454,0.0851 l 11.8962,8.16324 c 0.30115,0.20614 0.76004,0.16402 1.01906,-0.0941 l 10.72209,-10.72389 c 0.25724,-0.25812 0.29936,-0.71612 0.0941,-1.01815 l -8.02073,-11.68559 c -0.20614,-0.30115 -0.22227,-0.80575 -0.0385,-1.12034 l 2.75155,-5.15357 c 0.1667,-0.32624 0.026,-0.70715 -0.31191,-0.84697 l -25.67548,-10.6262 c -0.33789,-0.14071 -0.769,0 -0.9599,0.31191 l -0.78962,1.28974 c -0.1452,0.2384 -0.39525,0.56195 -0.6247,0.8156 -2.97921,4.65255 -8.19103,7.7393 -14.12613,7.7393 -9.26207,0 -16.77014,-7.50896 -16.77014,-16.77013 0,-9.26117 7.50807,-16.76924 16.77014,-16.76924 5.9351,0 11.14692,3.08586 14.12613,7.73931 0.22945,0.25184 0.4795,0.5763 0.6247,0.81381 l 0.78962,1.28974 c 0.1909,0.31011 0.62201,0.45172 0.9599,0.31189 l 25.67638,-10.62529 c 0.3379,-0.13982 0.47771,-0.51983 0.3119,-0.84697 l -2.75155,-5.15357 c -0.18374,-0.31548 -0.1685,-0.81919 0.0386,-1.12034 l 8.02073,-11.68648 c 0.20525,-0.30114 0.16313,-0.76003 -0.0941,-1.01726 l -10.72209,-10.72389 c -0.25903,-0.25902 -0.71792,-0.30115 -1.01906,-0.0941 l -11.89621,8.16413 c -0.30116,0.20614 -0.81561,0.24469 -1.14454,0.0843 l -11.20788,-4.48673 c -0.34864,-0.11025 -0.69012,-0.49206 -0.75556,-0.85236 l -2.67447,-14.3717 c -0.0654,-0.35851 -0.42125,-0.65339 -0.78692,-0.65339 l -15.16401,-0.002 c -0.36658,-8.9e-4 -0.71881,0.29308 -0.78783,0.65159"
           inkscape:connector-curvature="0" />
        <g
           id="g3010"
           transform="translate(-109.71124,152.48239)">
          <g
             id="g3024"
             transform="translate(6,2)">
            <path
               inkscape:connector-curvature="0"
               d="m 296.137,388.855 c 11.988,-2.01 24.635,0.121 35.256,6.055 10.631,5.874 19.182,15.438 23.795,26.676 4.687,11.25 5.354,24.102 1.938,35.797 -4.62,16.163 -17.256,29.808 -33.071,35.531 -1.297,0.612 -2.293,-0.702 -2.581,-1.806 -3.881,-10.446 -7.877,-20.855 -11.718,-31.314 -0.894,-1.884 1.428,-2.556 2.676,-3.198 6.852,-3.275 10.513,-11.819 8.143,-19.049 -1.746,-5.898 -7.116,-10.494 -13.212,-11.305 -6.96,-1.128 -14.286,2.994 -17.064,9.443 -2.664,5.797 -1.41,13.111 3.066,17.664 1.758,1.998 4.188,3.145 6.51,4.338 1.038,0.564 0.678,1.914 0.324,2.797 -3.906,10.32 -7.746,20.657 -11.652,30.978 -0.276,0.888 -1.188,1.938 -2.208,1.506 -19.056,-6.672 -33.3,-25.031 -35.142,-45.132 -1.428,-13.206 2.256,-26.873 10.152,-37.554 8.226,-11.309 20.982,-19.194 34.788,-21.427 l 0,0 z"
               id="path2996" />
            <path
               style="fill:#ffffff"
               inkscape:connector-curvature="0"
               d="m 293.551,393.23 c 9.991,-2.364 20.694,-1.578 30.234,2.232 10.896,4.302 20.172,12.552 25.758,22.854 5.01,9.156 7.039,19.902 5.73,30.264 -1.272,10.615 -6.09,20.749 -13.463,28.489 -4.825,5.136 -10.777,9.138 -17.221,11.946 -3.589,-9.595 -7.314,-19.141 -10.74,-28.795 5.802,-2.952 10.134,-8.718 10.907,-15.234 1.357,-8.844 -4.181,-18.054 -12.563,-21.102 -7.722,-3.072 -17.189,-0.594 -22.386,5.893 -5.016,5.934 -5.952,14.897 -2.292,21.744 1.914,3.815 5.214,6.737 8.922,8.76 -3.594,9.569 -7.182,19.14 -10.782,28.703 -9.888,-4.14 -18.402,-11.478 -23.91,-20.676 -4.656,-7.74 -7.212,-16.752 -7.152,-25.794 -0.138,-11.202 3.738,-22.368 10.656,-31.163 7.015,-9.019 17.167,-15.546 28.302,-18.121 l 0,0 z"
               id="path2998" />
            <text
               style="font-size:6.96530008px;font-family:ArialMT"
               transform="matrix(1.046,0,0,1,358.5664,488.8652)"
               font-size="6.9653"
               id="text3000">R</text>
            <ellipse
               d="m 365.17001,486.54401 c 0,2.24393 -1.90279,4.063 -4.25,4.063 -2.34721,0 -4.25,-1.81907 -4.25,-4.063 0,-2.24394 1.90279,-4.063 4.25,-4.063 2.34721,0 4.25,1.81906 4.25,4.063 z"
               style="fill:none;stroke:#000000;stroke-miterlimit:10"
               sodipodi:ry="4.0630002"
               sodipodi:rx="4.25"
               sodipodi:cy="486.54401"
               sodipodi:cx="360.92001"
               stroke-miterlimit="10"
               cx="360.92001"
               cy="486.54401"
               rx="4.25"
               ry="4.0630002"
               id="ellipse3002" />
          </g>
        </g>
        <text
           xml:space="preserve"
           style="font-size:160px;font-style:normal;font-variant:normal;font-weight:normal;font-stretch:normal;line-height:125%;letter-spacing:0px;word-spacing:0px;fill:#000000;fill-opacity:1;stroke:none;font-family:Calibri;-inkscape-font-specification:Calibri"
           x="258.57144"
           y="645.93365"
           id="text3016"
           sodipodi:linespacing="125%"><tspan
             sodipodi:role="line"
             id="tspan3018"
             x="258.57144"
             y="645.93365"
             style="font-size:160px">S</tspan></text>
        <text
           xml:space="preserve"
           style="font-size:180px;font-style:normal;font-variant:normal;font-weight:normal;font-stretch:normal;line-height:125%;letter-spacing:0px;word-spacing:0px;fill:#000000;fill-opacity:1;stroke:none;font-family:Calibri;-inkscape-font-specification:Calibri"
           x="449.83282"
           y="646.94946"
           id="text3020"
           sodipodi:linespacing="125%"><tspan
             sodipodi:role="line"
             id="tspan3022"
             x="449.83282"
             y="646.94946"
             style="font-size:160px">AR</tspan></text>
      </g>
      <text
         sodipodi:linespacing="86.999989%"
         id="text3043"
         y="753.78943"
         x="322.6131"
         style="font-size:180px;font-style:normal;font-variant:normal;font-weight:normal;font-stretch:normal;line-height:86.99998856%;letter-spacing:0px;word-spacing:0px;fill:#000000;fill-opacity:1;stroke:none;font-family:Calibri;-inkscape-font-specification:Calibri"
         xml:space="preserve"><tspan
           style="font-size:90px;text-align:center;line-height:86.99998856%;text-anchor:middle"
           y="753.78943"
           x="322.6131"
           id="tspan3045"
           sodipodi:role="line">Open Screen</tspan><tspan
           style="font-size:90px;text-align:center;line-height:86.99998856%;text-anchor:middle"
           id="tspan3047"
           y="832.08942"
           x="322.6131"
           sodipodi:role="line">Adapter</tspan></text>
    </g>
  </g>
</svg>
