<?xml version="1.0" encoding="utf-8"?>
<!-- Generator: Adobe Illustrator 15.1.0, SVG Export Plug-In . SVG Version: 6.00 Build 0)  -->
<!DOCTYPE svg PUBLIC "-//W3C//DTD SVG 1.1//EN" "http://www.w3.org/Graphics/SVG/1.1/DTD/svg11.dtd">
<svg version="1.1" id="Layer_1" xmlns="http://www.w3.org/2000/svg" xmlns:xlink="http://www.w3.org/1999/xlink" x="0px" y="0px"
	 width="172.238px" height="180.994px" viewBox="0 0 172.238 180.994" enable-background="new 0 0 172.238 180.994"
	 xml:space="preserve">
<path d="M152.336,57.604l-16.439-3.057c-0.4-0.075-0.838-0.451-0.973-0.837l-5.039-11.756c-0.188-0.363-0.152-0.933,0.08-1.271
	l9.578-13.96c0.229-0.336,0.184-0.847-0.105-1.136l-11.963-11.963c-0.289-0.289-0.799-0.336-1.135-0.105l-14.205,9.748
	c-0.336,0.231-0.912,0.272-1.277,0.092l-11.396-4.665c-0.387-0.128-0.764-0.561-0.84-0.962L95.457,0.729
	C95.383,0.329,94.988,0,94.58,0H77.66c-0.407,0-0.802,0.328-0.876,0.729L73.62,17.732c-0.076,0.401-0.452,0.834-0.84,0.962
	l-11.397,4.665c-0.366,0.18-0.942,0.139-1.277-0.092L45.901,13.52c-0.337-0.231-0.848-0.184-1.136,0.105L32.802,25.587
	c-0.288,0.289-0.336,0.8-0.105,1.136l9.579,13.96c0.23,0.338,0.266,0.908,0.079,1.271l-5.04,11.756
	c-0.134,0.386-0.571,0.762-0.973,0.837l-16.438,3.057c-0.402,0.076-0.729,0.47-0.729,0.878l0.001,16.919
	c0,0.408,0.328,0.805,0.729,0.878l16.035,2.984c0.401,0.073,0.83,0.454,0.952,0.843l5.006,12.505
	c0.179,0.367,0.137,0.941-0.095,1.277l-9.108,13.273c-0.23,0.336-0.183,0.848,0.105,1.137l11.965,11.963
	c0.288,0.287,0.799,0.334,1.136,0.105l13.038-8.949c0.336-0.23,0.899-0.248,1.25-0.043l5.75,3.07
	c0.364,0.186,0.789,0.029,0.945-0.348L78.74,85.449c0.157-0.377,0-0.858-0.348-1.071l-1.439-0.881
	c-0.266-0.162-0.627-0.441-0.91-0.697c-5.191-3.324-8.635-9.139-8.635-15.761c0-10.334,8.378-18.711,18.711-18.711
	c10.333,0,18.71,8.377,18.71,18.711c0,6.622-3.443,12.437-8.635,15.761c-0.281,0.256-0.643,0.535-0.908,0.697l-1.439,0.881
	c-0.346,0.213-0.504,0.694-0.348,1.071l11.855,28.648c0.156,0.377,0.58,0.533,0.945,0.348l5.75-3.07
	c0.352-0.205,0.914-0.188,1.25,0.043l13.039,8.949c0.336,0.229,0.848,0.182,1.135-0.105l11.965-11.963
	c0.289-0.289,0.336-0.801,0.105-1.137l-9.109-13.273c-0.23-0.336-0.273-0.91-0.094-1.277l5.006-12.505
	c0.123-0.389,0.549-0.77,0.951-0.843l16.035-2.984c0.4-0.073,0.729-0.47,0.729-0.878l0.002-16.919
	C153.064,58.074,152.736,57.681,152.336,57.604"/>
</svg>
